<?xml version="1.0" standalone="no"?>
<!DOCTYPE svg PUBLIC "-//W3C//DTD SVG 20010904//EN"
 "http://www.w3.org/TR/2001/REC-SVG-20010904/DTD/svg10.dtd">
<svg version="1.0" xmlns="http://www.w3.org/2000/svg"
 width="1024.000000pt" height="1024.000000pt" viewBox="0 0 1024.000000 1024.000000"
 preserveAspectRatio="xMidYMid meet">
<metadata>
Created by potrace 1.11, written by Peter Selinger 2001-2013
</metadata>
<g transform="translate(0.000000,1024.000000) scale(0.100000,-0.100000)"
fill="#000000" stroke="none">
<path d="M2659 10235 c-2 -1 -71 -6 -154 -9 -82 -3 -172 -9 -200 -11 -27 -3
-77 -7 -110 -10 -33 -2 -60 -4 -60 -6 0 -1 -16 -3 -35 -4 -62 -5 -134 -15
-160 -21 -14 -4 -34 -8 -45 -9 -60 -6 -121 -18 -125 -24 -3 -3 -14 -7 -25 -7
-22 -1 -80 -11 -80 -14 0 -1 -7 -3 -15 -5 -57 -14 -190 -54 -201 -61 -8 -5
-23 -10 -33 -11 -11 -2 -25 -8 -31 -13 -7 -5 -15 -7 -18 -3 -4 3 -7 2 -7 -4 0
-10 -39 -25 -56 -22 -4 0 -10 -3 -13 -8 -3 -5 -45 -28 -93 -53 -49 -24 -88
-48 -88 -52 0 -4 -9 -8 -20 -8 -11 0 -20 -4 -20 -9 0 -5 -8 -12 -17 -15 -20
-6 -201 -139 -249 -183 -102 -92 -124 -115 -124 -125 0 -6 -3 -9 -6 -6 -3 4
-22 -12 -42 -35 -20 -23 -44 -48 -52 -57 -179 -194 -380 -556 -435 -786 -3
-10 -16 -64 -29 -119 -13 -55 -27 -116 -31 -135 -13 -74 -17 -96 -20 -120 -2
-14 -4 -25 -5 -25 -2 0 -9 -65 -14 -135 -3 -36 -6 -65 -6 -65 -6 0 -12 -65
-28 -340 -8 -139 -9 -5050 -1 -5200 3 -56 9 -106 13 -113 4 -7 2 -12 -4 -12
-6 0 -9 -4 -5 -10 5 -8 8 -37 20 -200 2 -25 4 -45 5 -45 2 0 5 -36 11 -113 2
-23 5 -42 8 -42 4 0 7 -17 8 -38 3 -39 11 -97 13 -97 1 0 4 -13 6 -30 2 -16
12 -59 20 -94 9 -36 17 -72 19 -80 11 -56 60 -205 91 -279 65 -152 199 -390
225 -400 5 -2 9 -8 9 -13 0 -9 46 -73 76 -105 5 -6 26 -30 45 -54 75 -92 242
-249 329 -310 19 -13 37 -27 40 -30 3 -4 34 -25 70 -48 36 -23 71 -46 78 -53
25 -21 285 -148 293 -143 5 3 9 1 9 -4 0 -6 59 -30 120 -47 3 -1 12 -5 20 -8
8 -4 26 -9 40 -11 14 -3 25 -5 25 -6 0 -1 7 -3 15 -5 8 -1 35 -8 60 -15 25 -7
54 -14 65 -16 11 -2 31 -6 45 -9 41 -9 84 -17 103 -18 9 -1 17 -5 17 -10 0 -4
4 -6 9 -3 4 3 37 0 72 -5 35 -6 79 -12 97 -12 17 0 32 -3 32 -6 0 -3 19 -6 43
-7 48 -1 201 -12 297 -21 82 -8 5240 -14 5253 -6 5 3 43 7 85 8 43 2 115 6
162 10 47 4 93 7 102 7 10 0 20 3 23 9 4 5 13 5 24 -1 10 -5 21 -7 24 -4 5 5
25 8 112 19 61 7 100 14 220 41 61 13 122 26 138 29 15 2 32 7 37 10 6 3 20 8
32 10 48 10 163 48 169 57 3 5 9 9 13 9 17 -3 56 12 56 22 0 6 3 8 6 4 10 -10
178 79 299 158 212 138 393 304 535 491 25 32 47 61 50 64 15 15 50 71 50 80
0 5 5 10 10 10 6 0 10 4 10 10 0 5 15 33 34 62 62 98 170 331 182 397 3 13 9
32 15 42 5 10 9 22 8 26 -1 4 0 10 1 13 2 7 5 20 34 140 28 115 50 242 49 278
-1 12 2 22 6 22 3 0 7 17 8 38 1 20 4 64 7 97 6 62 10 105 23 285 11 141 10
5172 0 5330 -5 69 -10 150 -11 181 -2 31 -5 60 -7 65 -3 5 -4 26 -4 47 1 20
-1 37 -5 37 -3 0 -5 19 -6 43 -1 23 -4 60 -8 82 -4 22 -9 56 -12 75 -3 19 -7
44 -9 55 -4 23 -34 161 -41 188 -2 9 -6 26 -9 38 -2 11 -7 29 -10 39 -3 10 -8
27 -10 38 -11 60 -99 283 -128 325 -10 15 -15 27 -10 27 4 0 3 4 -2 8 -6 4
-16 18 -23 32 -23 48 -127 216 -142 230 -3 3 -24 30 -46 60 -89 119 -202 235
-353 362 -8 7 -38 29 -65 50 -28 20 -56 42 -63 48 -7 5 -15 10 -18 10 -3 0
-11 5 -18 10 -28 25 -120 80 -132 80 -7 0 -15 4 -17 9 -5 13 -222 114 -308
144 -68 23 -139 44 -180 52 -8 2 -15 4 -15 6 0 1 -11 2 -25 3 -14 1 -29 4 -35
8 -9 5 -55 15 -110 23 -11 1 -20 3 -20 4 0 5 -109 21 -147 22 -10 0 -20 5 -24
10 -4 6 -11 6 -20 -2 -8 -6 -14 -7 -14 -2 0 5 -15 8 -32 8 -18 -1 -37 1 -43 4
-5 2 -21 6 -35 6 -107 7 -264 19 -305 23 -55 5 -5101 13 -5106 7z"/>
</g>
</svg>
